# xmcd
#
# Track frame offsets:
#	150
#	13631
#	30045
#	45880
#	61996
#	76919
#	92892
#	107014
#	121372
#	132030
#	148231
#	162041
#	177014
#	199656
#	219889
#	233842
#	248935
#	264150
#	279379
#	290513
#	311759
#
# Disc length: 4370 seconds
#
# Revision: 1
# Processed by: cddbd v1.5.2PL0 Copyright (c) Steve Scherf et al.
# Submitted via: audiograbber 1.82.02
#
DISCID=12111015
DTITLE=Various Artist - The Balladeers Vol 4
DYEAR=2002
DGENRE=Country
TTITLE0=Nathan Charlton - Yes, Buddy and Slim
TTITLE1=Keith Jamieson - Pick Up Man
TTITLE2=Gina Briskey - Drovers Boy
TTITLE3=Rick Hopkins - Mark The Coloured Drover
TTITLE4=Pete Smith - Where The Lazy Murray River Rolls Along
TTITLE5=Trevor Day - Ode To A Bull
TTITLE6=Reg Briskey - Kooroongarra
TTITLE7=Laura Downing - Yodelling Around Australia
TTITLE8=Dave McCallum - Cobb And Co Twitch
TTITLE9=John Vaughan - Where Do Bush Flies Go
TTITLE10=Rodney Noll - The Old Pine Hut
TTITLE11=LeAnne King - The Roan Mare
TTITLE12=Barry K Chandler - Drive Truckie Drive
TTITLE13=Charmaine Pout - Freight Train Yodel
TTITLE14=Lex K - A Ringers Vacation
TTITLE15=Dusty Page - Curio
TTITLE16=Wave Jackson - I'm Proud Of What I Am
TTITLE17=Ted Thompson - Terry Cahill The Legend
TTITLE18=Zeta Burns - Where The Tall Grey Brigalows Grow
TTITLE19=Merv Webster - The Ballad Of The Blowfly
TTITLE20=Dusty Spittle - A Fellow With A Fiddle
EXTD=
EXTT0=
EXTT1=
EXTT2=
EXTT3=
EXTT4=
EXTT5=
EXTT6=
EXTT7=
EXTT8=
EXTT9=
EXTT10=
EXTT11=
EXTT12=
EXTT13=
EXTT14=
EXTT15=
EXTT16=
EXTT17=
EXTT18=
EXTT19=
EXTT20=
PLAYORDER=
